<svg width="33" height="38" viewBox="0 0 33 38" fill="none" xmlns="http://www.w3.org/2000/svg">
<path d="M32.1216 18.9982C32.1216 8.5302 25.043 0 16.3564 0C7.66976 0 0.591187 8.5302 0.591187 18.9982C0.591187 24.5077 2.56184 29.4663 5.68334 32.9429C5.68334 32.9619 5.68334 32.9619 5.66758 32.9809C5.82523 33.1709 6.01441 33.3229 6.17207 33.4939C6.26666 33.5889 6.34548 33.6839 6.44007 33.7599C6.72385 34.0448 7.03915 34.3108 7.33869 34.5768C7.44905 34.6718 7.54364 34.7478 7.65399 34.8428C7.95353 35.0897 8.26884 35.3177 8.59991 35.5267C8.71026 35.6027 8.83638 35.6977 8.94674 35.7737C9.26204 35.9826 9.59311 36.1726 9.93995 36.3436C10.0661 36.4196 10.1922 36.4956 10.3183 36.5526C10.6651 36.7236 11.012 36.8756 11.3588 37.0085C11.4849 37.0655 11.6111 37.1225 11.7372 37.1605C12.1155 37.2935 12.4939 37.4075 12.8723 37.5215C12.9826 37.5595 13.093 37.5975 13.2191 37.6165C13.6605 37.7305 14.102 37.8065 14.5591 37.8635C14.6222 37.8635 14.6853 37.8825 14.7483 37.9015C15.2843 37.9585 15.8204 37.9965 16.3564 37.9965C16.8924 37.9965 17.4284 37.9585 17.9487 37.9015C18.0117 37.9015 18.0748 37.8825 18.1378 37.8635C18.595 37.8065 19.0365 37.7305 19.4779 37.6165C19.5882 37.5975 19.6986 37.5405 19.8247 37.5215C20.2031 37.4075 20.5972 37.3125 20.9598 37.1605C21.0859 37.1035 21.2121 37.0465 21.3382 37.0085C21.685 36.8566 22.0476 36.7236 22.3787 36.5526C22.5048 36.4956 22.6309 36.4196 22.757 36.3436C23.0881 36.1726 23.4192 35.9826 23.7503 35.7737C23.8764 35.6977 23.9867 35.6027 24.0971 35.5267C24.4124 35.2987 24.7277 35.0897 25.043 34.8428C25.1534 34.7668 25.2479 34.6718 25.3583 34.5768C25.6736 34.3108 25.9732 34.0448 26.2569 33.7599C26.3515 33.6649 26.4303 33.5699 26.5249 33.4939C26.6984 33.3229 26.8718 33.1519 27.0294 32.9809C27.0294 32.9619 27.0294 32.9619 27.0137 32.9429C30.1509 29.4663 32.1216 24.5077 32.1216 18.9982ZM24.1444 28.4403C19.872 24.9827 12.8723 24.9827 8.56838 28.4403C7.87471 28.9913 7.30716 29.6372 6.8342 30.3402C4.43789 27.4144 2.95597 23.4058 2.95597 18.9982C2.95597 10.0881 8.96251 2.84973 16.3564 2.84973C23.7503 2.84973 29.7568 10.0881 29.7568 18.9982C29.7568 23.4058 28.2749 27.4144 25.8786 30.3402C25.4214 29.6372 24.8381 28.9913 24.1444 28.4403Z" fill="#292D32"/>
<path d="M16.3563 9.36554C13.0929 9.36554 10.4444 12.5572 10.4444 16.4899C10.4444 20.3465 12.9511 23.4812 16.2775 23.5952H16.4194H16.5298H16.5613C19.7459 23.4622 22.2525 20.3465 22.2683 16.4899C22.2683 12.5572 19.6197 9.36554 16.3563 9.36554Z" fill="#292D32"/>
</svg>
