<svg width="35" height="32" viewBox="0 0 35 32" fill="none" xmlns="http://www.w3.org/2000/svg">
<path d="M16.2003 17.1403L16.1814 17.1236L16.1608 17.1089L15.6758 16.7611V9.10167H19.0117V15.5259V15.7516L19.1809 15.9009L20.6551 17.2016L20.6654 17.2106L20.6761 17.2191L21.8537 18.1487L19.5307 20.1982L18.3886 19.072L18.3787 19.0623L18.3683 19.0531L16.2003 17.1403ZM0.5 16.1763C0.5 8.09319 8.02015 1.37402 17.3438 1.37402C26.6674 1.37402 34.1875 8.09319 34.1875 16.1763C34.1875 24.2594 26.6674 30.9786 17.3438 30.9786C8.02015 30.9786 0.5 24.2594 0.5 16.1763ZM30.8516 16.1763C30.8516 9.4927 24.7569 4.19959 17.3438 4.19959C9.93063 4.19959 3.83594 9.4927 3.83594 16.1763C3.83594 22.8599 9.93063 28.153 17.3438 28.153C24.7569 28.153 30.8516 22.8599 30.8516 16.1763Z" fill="black" stroke="black"/>
</svg>
