<svg width="39" height="46" viewBox="0 0 39 46" fill="none" xmlns="http://www.w3.org/2000/svg">
<path d="M4.18237 4H6.92553C8.62817 4 9.9682 5.76684 9.82631 7.79965L8.5178 26.7219C8.29709 29.8186 10.3308 32.4784 12.9163 32.4784H29.7062C31.9764 32.4784 33.9628 30.2366 34.1362 27.5198L34.9876 13.2711C35.1768 10.1174 33.1903 7.55267 30.5575 7.55267H10.2047" stroke="#292D32" stroke-width="7.67729" stroke-miterlimit="10" stroke-linecap="round" stroke-linejoin="round"/>
<path d="M26.6478 41.9965C27.7362 41.9965 28.6184 40.9333 28.6184 39.6217C28.6184 38.31 27.7362 37.2469 26.6478 37.2469C25.5593 37.2469 24.6771 38.31 24.6771 39.6217C24.6771 40.9333 25.5593 41.9965 26.6478 41.9965Z" stroke="#292D32" stroke-width="7.67729" stroke-miterlimit="10" stroke-linecap="round" stroke-linejoin="round"/>
<path d="M14.0356 41.9965C15.124 41.9965 16.0062 40.9333 16.0062 39.6217C16.0062 38.31 15.124 37.2469 14.0356 37.2469C12.9472 37.2469 12.0649 38.31 12.0649 39.6217C12.0649 40.9333 12.9472 41.9965 14.0356 41.9965Z" stroke="#292D32" stroke-width="7.67729" stroke-miterlimit="10" stroke-linecap="round" stroke-linejoin="round"/>
<path d="M15.2179 15.3989H34.1361" stroke="#292D32" stroke-width="7.67729" stroke-miterlimit="10" stroke-linecap="round" stroke-linejoin="round"/>
</svg>
