<svg width="32" height="38" viewBox="0 0 32 38" fill="none" xmlns="http://www.w3.org/2000/svg">
<path d="M15.0334 36.2327C6.7467 36.2327 0 28.1025 0 18.1164C0 8.13027 6.7467 0 15.0334 0C23.3201 0 30.0668 8.13027 30.0668 18.1164C30.0668 28.1025 23.3201 36.2327 15.0334 36.2327ZM15.0334 2.65118C7.94937 2.65118 2.20001 9.59725 2.20001 18.1164C2.20001 26.6355 7.94937 33.5816 15.0334 33.5816C22.1174 33.5816 27.8668 26.6355 27.8668 18.1164C27.8668 9.59725 22.1174 2.65118 15.0334 2.65118Z" fill="#292D32"/>
<path d="M30.434 38C30.1554 38 29.8767 37.8763 29.6567 37.6112L26.7234 34.0763C26.298 33.5637 26.298 32.7154 26.7234 32.2028C27.1487 31.6902 27.8527 31.6902 28.278 32.2028L31.2114 35.7377C31.6367 36.2503 31.6367 37.0986 31.2114 37.6112C30.9914 37.8763 30.7127 38 30.434 38Z" fill="#292D32"/>
</svg>
