<svg width="36" height="31" viewBox="0 0 36 31" fill="none" xmlns="http://www.w3.org/2000/svg">
<path d="M18.1632 0.62049C18.187 0.588744 18.2163 0.560116 18.2464 0.538304H26.2617C26.2926 0.538304 26.3094 0.545059 26.3272 0.556742C26.3498 0.571617 26.3822 0.601095 26.423 0.657425L30.6047 7.57465L30.6132 7.58876L30.6226 7.60228C30.8155 7.87838 31.1738 8.16071 31.6122 8.16071H35.125V30.1045H0.5V13.3679C0.5 10.5335 3.18951 8.12241 6.68805 8.12241H12.9748C13.4155 8.12241 13.8118 7.87806 13.9939 7.51719L18.1632 0.62049ZM35.24 8.16191C35.24 8.16195 35.2393 8.16185 35.238 8.16151L35.24 8.16191ZM9.50657 13.4062C9.50657 11.989 8.22784 10.9911 6.77722 10.9911C5.3266 10.9911 4.04787 11.989 4.04787 13.4062C4.04787 14.8235 5.3266 15.8214 6.77722 15.8214C8.22784 15.8214 9.50657 14.8235 9.50657 13.4062ZM31.8001 19.1518C31.8001 14.5937 27.4894 10.9911 22.3827 10.9911C17.2759 10.9911 12.9653 14.5937 12.9653 19.1518C12.9653 23.7099 17.2759 27.3125 22.3827 27.3125C27.4894 27.3125 31.8001 23.7099 31.8001 19.1518ZM18.424 19.1518C18.424 17.3898 20.1326 15.8214 22.3827 15.8214C24.6328 15.8214 26.3414 17.3898 26.3414 19.1518C26.3414 20.9138 24.6328 22.4821 22.3827 22.4821C20.1326 22.4821 18.424 20.9138 18.424 19.1518Z" fill="black" stroke="black"/>
</svg>
